<svg version="1.1" class="clearos-svg clearfoundation app-vendor-burgess app-free app-category-reports app-sub-category-performance-and-resources" viewBox="0 0 400 400" preserveAspectRatio="xMinYMin" xmlns="http://www.w3.org/2000/svg" xmlns:xlink= "http://www.w3.org/1999/xlink">
<path fill="#AA0707" d="M91.666,184.647"/>
<path fill="#AA0707" d="M123.245,247.805"/>
<path fill="#AA0707" d="M91.666,184.647"/>
<path fill="#AA0707" d="M123.245,247.805"/>
<g>
	<path fill="#686868" d="M368.688,2.348H33.02c-15.434,0-27.943,12.524-27.943,27.976v106.063H117.41l13.753,25.173l81.13-123.084
		l56.852,109.098l23.09-11.187h104.43V30.322C396.662,14.872,384.154,2.348,368.688,2.348z"/>
	<path fill="#686868" d="M264.508,182.08l-55.016-78.321L131.164,207.27l-17.239-36.375H5.046v85.797
		c0,15.436,12.524,27.976,27.974,27.976h335.669c15.465,0,27.975-12.54,27.975-27.976v-85.797H291.52L264.508,182.08z"/>
	<path fill="#686868" d="M34.39,346.092c-12.245-4.729-17.627-8.807-17.627-17.083c0-6.067,4.604-13.286,16.694-13.286
		c8.012,0,13.94,2.612,16.834,4.199l3.143-9.335c-3.952-2.239-10.518-4.323-19.603-4.323c-17.208,0-28.659,10.235-28.659,24.053
		c0,12.479,8.962,19.978,23.4,25.111c11.979,4.604,16.709,9.334,16.709,17.611c0,8.961-6.846,15.122-18.545,15.122
		c-7.888,0-15.372-2.613-20.522-5.787l-2.878,9.615c4.73,3.144,14.064,5.663,22.606,5.663c20.895,0,31.009-11.855,31.009-25.547
		C56.98,359.1,49.372,351.879,34.39,346.092z"/>
	<path fill="#686868" d="M143.112,307.691l-15.776,42.85c-3.952,11.171-7.111,20.91-9.336,29.872h-0.389
		c-2.225-9.211-5.258-18.95-8.945-29.872l-15.123-42.85H78.949l-6.161,88.592h10.906l2.35-37.963
		c0.778-13.287,1.462-28.16,1.711-39.176h0.28c2.49,10.518,6.037,21.937,10.253,34.414l14.33,42.227h8.651l15.651-43.004
		c4.45-12.229,8.153-23.244,11.171-33.637h0.405c-0.14,11.045,0.654,25.889,1.338,38.242l2.225,38.896h11.156l-5.507-88.591H143.112
		L143.112,307.691L143.112,307.691z"/>
	<path fill="#686868" d="M205.424,307.691l-30.104,88.592h11.824l9.211-27.85h31.436l9.459,27.85h12.229l-30.246-88.592H205.424z
		 M198.72,359.503l8.68-25.642c1.719-5.383,3.15-10.797,4.49-16.057h0.248c1.307,5.135,2.645,10.394,4.604,16.182l8.682,25.517
		H198.72L198.72,359.503z"/>
	<path fill="#686868" d="M302.846,354.088v-0.371c9.334-3.145,16.709-10.924,16.709-22.623c0-6.847-2.488-12.884-6.971-16.834
		c-5.539-4.979-13.412-7.221-25.641-7.221c-7.873,0-16.148,0.652-21.939,1.836v87.408h11.422v-38.367h10.797
		c10.395,0.373,15.123,4.979,17.736,17.208c2.521,11.046,4.482,18.67,5.912,21.159h11.824c-1.836-3.424-3.92-11.979-6.814-24.303
		C313.768,362.77,309.66,356.453,302.846,354.088z M288.127,349.234h-11.699v-32.332c1.834-0.528,5.785-1.059,11.295-1.059
		c12.135,0.155,20.381,5.135,20.381,16.586C308.104,342.544,300.355,349.234,288.127,349.234z"/>
	<polygon fill="#686868" points="329.293,317.434 356.242,317.434 356.242,396.283 367.816,396.283 367.816,317.434 
		394.889,317.434 394.889,307.691 329.293,307.691 	"/>
</g>
</svg>
